<svg width="61" height="61" viewBox="0 0 61 61" fill="none" xmlns="http://www.w3.org/2000/svg">
<g filter="url(#filter0_d_1_80)">
<path fill-rule="evenodd" clip-rule="evenodd" d="M37.6835 21.5773C35.8329 19.8432 33.479 18.9602 30.8572 18.9602C26.2062 18.9602 22.2695 22.0386 20.8653 26.175L20.8653 26.175V26.1752C20.5081 27.2252 20.3052 28.3468 20.3052 29.5002C20.3052 30.6536 20.5081 31.7752 20.8653 32.8252L20.8653 32.8252C22.2695 36.9616 26.2062 40.04 30.8572 40.04C33.2597 40.04 35.3051 39.4196 36.9041 38.3696V38.3695C38.7954 37.1286 40.0535 35.2752 40.4674 33.0877H30.8571V26.3184H47.6752C47.8863 27.4638 47.9999 28.657 47.9999 29.8979C47.9999 35.2274 46.0519 39.7138 42.6753 42.7604L42.6754 42.7604C39.7208 45.4332 35.6786 47.0002 30.8572 47.0002C23.8767 47.0002 17.8377 43.0786 14.8994 37.3593L14.8994 37.3593C13.6899 34.9968 13 32.3241 13 29.5002C13 26.6763 13.6899 24.0036 14.8994 21.6411H14.8997L14.8994 21.6409C17.8377 15.9216 23.8767 12 30.8572 12C35.6705 12 39.7127 13.7341 42.8053 16.558L37.6835 21.5773Z" fill="#FFFADE"/>
</g>
<defs>
<filter id="filter0_d_1_80" x="0" y="0" width="61" height="61.0002" filterUnits="userSpaceOnUse" color-interpolation-filters="sRGB">
<feFlood flood-opacity="0" result="BackgroundImageFix"/>
<feColorMatrix in="SourceAlpha" type="matrix" values="0 0 0 0 0 0 0 0 0 0 0 0 0 0 0 0 0 0 127 0" result="hardAlpha"/>
<feOffset dy="1"/>
<feGaussianBlur stdDeviation="6.5"/>
<feColorMatrix type="matrix" values="0 0 0 0 0.991667 0 0 0 0 0.863494 0 0 0 0 0.409063 0 0 0 1 0"/>
<feBlend mode="normal" in2="BackgroundImageFix" result="effect1_dropShadow_1_80"/>
<feBlend mode="normal" in="SourceGraphic" in2="effect1_dropShadow_1_80" result="shape"/>
</filter>
</defs>
</svg>
