<svg width="35" height="35" viewBox="0 0 35 35" fill="none" xmlns="http://www.w3.org/2000/svg">
<path fill-rule="evenodd" clip-rule="evenodd" d="M24.6835 9.57727C22.8329 7.84318 20.479 6.96023 17.8572 6.96023C13.2062 6.96023 9.26954 10.0386 7.86532 14.175L7.86526 14.175V14.1752C7.50812 15.2252 7.3052 16.3468 7.3052 17.5002C7.3052 18.6536 7.50812 19.7752 7.86526 20.8252L7.86532 20.8252C9.26954 24.9616 13.2062 28.04 17.8572 28.04C20.2597 28.04 22.3051 27.4196 23.9041 26.3696V26.3695C25.7954 25.1286 27.0535 23.2752 27.4674 21.0877H17.8571V14.3184H34.6752C34.8863 15.4638 34.9999 16.657 34.9999 17.8979C34.9999 23.2274 33.0519 27.7138 29.6753 30.7604L29.6754 30.7604C26.7208 33.4332 22.6786 35.0002 17.8572 35.0002C10.8767 35.0002 4.83773 31.0786 1.89941 25.3593L1.89935 25.3593C0.689935 22.9968 0 20.3241 0 17.5002C0 14.6763 0.689935 12.0036 1.89935 9.64111H1.89968L1.89941 9.64091C4.83773 3.92159 10.8767 0 17.8572 0C22.6705 0 26.7127 1.73409 29.8053 4.55796L24.6835 9.57727Z" fill="#FFFADE"/>
</svg>
