<svg width="68" height="67" viewBox="0 0 68 67" fill="none" xmlns="http://www.w3.org/2000/svg">
<g filter="url(#filter0_d_1_155)">
<path d="M48.9345 17.9838C45.0435 14.1055 39.6648 12 34.1716 12C22.4987 12 13.1145 21.1973 13.2289 32.3891C13.2289 35.9351 14.2588 39.3703 15.9756 42.473L13 53L24.1008 50.2297C27.1907 51.892 30.6238 52.6677 34.0573 52.6677C45.6158 52.6677 55 43.4703 55 32.2786C55 26.8487 52.8254 21.7514 48.9345 17.9838ZM34.1716 49.2326C31.0817 49.2326 27.9918 48.457 25.3596 46.9057L24.673 46.5732L18.0355 48.2353L19.7521 41.9192L19.2943 41.2542C14.2588 33.3867 16.6621 22.9703 24.9019 18.0945C33.1416 13.2189 43.7847 15.546 48.8202 23.5243C53.8555 31.5027 51.4522 41.8081 43.2126 46.6839C40.5803 48.346 37.376 49.2326 34.1716 49.2326ZM44.2424 36.9327L42.9836 36.3786C42.9836 36.3786 41.1527 35.6029 40.0082 35.0488C39.8937 35.0488 39.7793 34.938 39.6648 34.938C39.3215 34.938 39.0926 35.0488 38.8637 35.1597C38.8637 35.1597 38.7494 35.2704 37.1472 37.0434C37.0326 37.265 36.8038 37.3759 36.5749 37.3759H36.4604C36.3461 37.3759 36.1172 37.265 36.0027 37.1543L35.4304 36.9327C34.1716 36.3786 33.0273 35.7137 32.1117 34.8272C31.8828 34.6056 31.5394 34.384 31.3106 34.1624C30.5095 33.3867 29.7084 32.5002 29.1363 31.5029L29.0218 31.2813C28.9074 31.1704 28.9074 31.0597 28.7929 30.8381C28.7929 30.6164 28.7929 30.3948 28.9074 30.284C28.9074 30.284 29.3651 29.7299 29.7084 29.3976C29.9374 29.1758 30.0517 28.8435 30.2806 28.6219C30.5095 28.2894 30.624 27.8462 30.5095 27.5137C30.3951 26.9596 29.0218 23.9677 28.6786 23.3029C28.4495 22.9704 28.2208 22.8597 27.8774 22.7488H26.6186C26.3896 22.7488 26.1609 22.8597 25.9319 22.8597L25.8173 22.9704C25.5885 23.0813 25.3596 23.3029 25.1308 23.4136C24.9019 23.6354 24.7874 23.8568 24.5585 24.0786C23.7574 25.0759 23.2997 26.2948 23.2997 27.5137C23.2997 28.4001 23.5285 29.2867 23.8719 30.0624L23.9864 30.3948C25.0164 32.5002 26.3896 34.384 28.2208 36.0461L28.6786 36.4893C29.0218 36.8218 29.3651 37.0434 29.594 37.3758C31.9973 39.3705 34.7438 40.811 37.8338 41.5867C38.1771 41.6974 38.6349 41.6974 38.9782 41.8083H40.1226C40.6948 41.8083 41.3814 41.5867 41.8393 41.3651C42.1825 41.1435 42.4114 41.1435 42.6402 40.9219L42.8692 40.7001C43.0981 40.4785 43.327 40.3678 43.5558 40.1462C43.7847 39.9246 44.0136 39.703 44.1281 39.4812C44.3569 39.038 44.4713 38.4839 44.5858 37.93V37.1543C44.5858 37.1543 44.4713 37.0434 44.2424 36.9327Z" fill="#FFFADE"/>
</g>
<defs>
<filter id="filter0_d_1_155" x="0" y="0" width="68" height="67" filterUnits="userSpaceOnUse" color-interpolation-filters="sRGB">
<feFlood flood-opacity="0" result="BackgroundImageFix"/>
<feColorMatrix in="SourceAlpha" type="matrix" values="0 0 0 0 0 0 0 0 0 0 0 0 0 0 0 0 0 0 127 0" result="hardAlpha"/>
<feOffset dy="1"/>
<feGaussianBlur stdDeviation="6.5"/>
<feColorMatrix type="matrix" values="0 0 0 0 0.991667 0 0 0 0 0.863494 0 0 0 0 0.409063 0 0 0 1 0"/>
<feBlend mode="normal" in2="BackgroundImageFix" result="effect1_dropShadow_1_155"/>
<feBlend mode="normal" in="SourceGraphic" in2="effect1_dropShadow_1_155" result="shape"/>
</filter>
</defs>
</svg>
