<svg width="37" height="13" viewBox="0 0 37 13" fill="none" xmlns="http://www.w3.org/2000/svg">
<g filter="url(#filter0_d_1_152)">
<path d="M32.7149 7.08998C32.8059 7.01086 32.8773 6.91756 32.925 6.81544C33.025 6.61289 33.025 6.3857 32.925 6.18314C32.8773 6.08102 32.8059 5.98772 32.7149 5.9086L30.714 4.24467C30.5257 4.08801 30.2702 4 30.0037 4C29.7373 4 29.4818 4.08801 29.2934 4.24467C29.1051 4.40133 28.9992 4.61381 28.9992 4.83537C28.9992 5.05692 29.1051 5.2694 29.2934 5.42606L29.5936 5.66733L5.00042 5.66733C4.73509 5.66733 4.48063 5.75498 4.29301 5.911C4.1054 6.06703 4 6.27864 4 6.49929C4 6.71994 4.1054 6.93155 4.29301 7.08757C4.48063 7.2436 4.73509 7.33125 5.00042 7.33125L29.5936 7.33125L29.2934 7.57252C29.1997 7.64986 29.1253 7.74188 29.0745 7.84326C29.0237 7.94464 28.9975 8.05339 28.9975 8.16321C28.9975 8.27304 29.0237 8.38179 29.0745 8.48317C29.1253 8.58455 29.1997 8.67657 29.2934 8.75391C29.3864 8.83189 29.4971 8.89378 29.619 8.93602C29.7409 8.97825 29.8717 9 30.0037 9C30.1358 9 30.2666 8.97825 30.3885 8.93602C30.5104 8.89378 30.621 8.83189 30.714 8.75391L32.7149 7.08998Z" fill="#E7A456"/>
</g>
<defs>
<filter id="filter0_d_1_152" x="0.5" y="0.5" width="36" height="12" filterUnits="userSpaceOnUse" color-interpolation-filters="sRGB">
<feFlood flood-opacity="0" result="BackgroundImageFix"/>
<feColorMatrix in="SourceAlpha" type="matrix" values="0 0 0 0 0 0 0 0 0 0 0 0 0 0 0 0 0 0 127 0" result="hardAlpha"/>
<feOffset/>
<feGaussianBlur stdDeviation="1.75"/>
<feComposite in2="hardAlpha" operator="out"/>
<feColorMatrix type="matrix" values="0 0 0 0 0.905882 0 0 0 0 0.643137 0 0 0 0 0.337255 0 0 0 0.7 0"/>
<feBlend mode="normal" in2="BackgroundImageFix" result="effect1_dropShadow_1_152"/>
<feBlend mode="normal" in="SourceGraphic" in2="effect1_dropShadow_1_152" result="shape"/>
</filter>
</defs>
</svg>
