<svg width="29" height="5" viewBox="0 0 29 5" fill="none" xmlns="http://www.w3.org/2000/svg">
<path d="M28.7149 3.08998C28.8059 3.01086 28.8773 2.91756 28.925 2.81544C29.025 2.61289 29.025 2.3857 28.925 2.18314C28.8773 2.08102 28.8059 1.98772 28.7149 1.9086L26.714 0.244673C26.5257 0.0880114 26.2702 -1.20976e-07 26.0037 -1.30971e-07C25.7373 -1.40965e-07 25.4818 0.0880113 25.2934 0.244673C25.1051 0.401334 24.9992 0.613813 24.9992 0.835366C24.9992 1.05692 25.1051 1.2694 25.2934 1.42606L25.5936 1.66733L1.00042 1.66733C0.73509 1.66733 0.480629 1.75498 0.293014 1.911C0.1054 2.06703 1.80775e-06 2.27864 1.7981e-06 2.49929C1.78846e-06 2.71994 0.1054 2.93155 0.293014 3.08757C0.480629 3.2436 0.73509 3.33125 1.00042 3.33125L25.5936 3.33125L25.2934 3.57252C25.1997 3.64986 25.1253 3.74188 25.0745 3.84326C25.0237 3.94464 24.9975 4.05339 24.9975 4.16321C24.9975 4.27304 25.0237 4.38179 25.0745 4.48317C25.1253 4.58455 25.1997 4.67657 25.2934 4.75391C25.3864 4.83189 25.4971 4.89378 25.619 4.93602C25.7409 4.97825 25.8717 5 26.0037 5C26.1358 5 26.2666 4.97825 26.3885 4.93602C26.5104 4.89378 26.621 4.83189 26.714 4.75391L28.7149 3.08998Z" fill="white"/>
</svg>
